<svg xmlns="http://www.w3.org/2000/svg" viewBox="0 0 137.48 141.73"><defs><style>path { fill: #e4003b;}</style></defs><title>qlaster_logo</title><path class="a" d="M44.79,94.73A18.88,18.88,0,1,1,26.62,64.6a19.11,19.11,0,0,1,3.26-.28A18.73,18.73,0,0,1,40.3,67.49l8.64-7.2Q48,59.53,47,58.83a29.84,29.84,0,1,0-17.26,54.23,30.2,30.2,0,0,0,5.15-.44,29.78,29.78,0,0,0,20.45-14Z"/><path class="a" d="M59.3,88a30,30,0,0,0-3.16-18.87l-8.7,7.25a19,19,0,0,1,1.27,7.73Z"/><path class="a" d="M99,94.95L97.1,83.87A29.84,29.84,0,0,0,81.91,96.35l10.6,3.9A18.88,18.88,0,0,1,99,94.95Z"/><path class="a" d="M136.76,106.81a29.89,29.89,0,0,0-28.44-24.74l1.93,11.17A18.88,18.88,0,1,1,88.5,110.88L77.93,107a29.83,29.83,0,0,0,34.51,34.3h0A29.87,29.87,0,0,0,136.76,106.81Z"/><path class="b" d="M67.06,44.69l8.67-7.22A18.91,18.91,0,0,1,93.21,11.33,18.89,18.89,0,0,1,102,46.94l1.92,11.13A29.8,29.8,0,1,0,67.06,44.69Z"/><path class="b" d="M76,54.61a29.62,29.62,0,0,0,16.72,5.45L90.78,49a18.75,18.75,0,0,1-7.72-2.8l-8.67,7.23Q75.15,54,76,54.61Z"/></svg>
